<?xml version="1.0" encoding="UTF-8"?>
<svg xmlns="http://www.w3.org/2000/svg" version="1.1" viewBox="0 0 652 247">
  <defs>
    <style>
      .cls-1 {
        fill: #90d07e;
      }

      .cls-2 {
        fill: none;
        stroke: #fffffe;
        stroke-linecap: round;
        stroke-linejoin: round;
        stroke-width: 3.7px;
      }

      .cls-3 {
        fill: #13377e;
      }

      .cls-4 {
        fill: #231815;
      }

      .cls-5 {
        fill: #fffffe;
      }
    </style>
  </defs>
  <!-- Generator: Adobe Illustrator 28.7.1, SVG Export Plug-In . SVG Version: 1.2.0 Build 142)  -->
  <g>
    <g id="layer">
      <g>
        <path class="cls-3" d="M297.6,19.9s27.1,2.8,16.2,9.4c0,0,4.1-5-16.2-9.4"/>
        <path class="cls-3" d="M296.5,22s23.7,13.1,11.1,15.1c-.1-.1,5.7-2.9-11.1-15.1"/>
        <path class="cls-3" d="M291.9,16.5s-18.1-19.8-17.1-7.6c0,0,1.6-6.3,17.1,7.6"/>
        <path class="cls-3" d="M290.3,18.6s-24.4-12.2-18.7-.9c0-.1-.8-6.5,18.7.9"/>
        <path class="cls-3" d="M292.4,22.9s-.3,9.8-18.6,5.5c.1,0,11.4-.3,18.6-5.5"/>
        <path class="cls-3" d="M293.1,22.3s5.8,1.1,4.6-4.3c-.1,0-1.6,3.3-4.6,4.3"/>
        <path class="cls-3" d="M297.6,16.3c1.4,0,2.4-1.1,2.4-2.4s-.4-1.7-1.4-2.1c1.4.2,2.6,1.4,2.6,2.9s-1.3,2.9-2.9,2.9-2.7-1.1-2.9-2.6c.4,1,1.1,1.3,2.2,1.3"/>
        <path class="cls-3" d="M260.7,95.5c-2.9,1.5-6.2,2.9-7.9,1.9-2.2-1.3-7.6-5.3-8.8-5.5-.2,0-.5-.2-.9-.4,4.7,5.3,8.9,10.1,12.5,14.1h-85.8c-.9,1.5-1.6,2.8-2.2,3.4-1.9,2.2-7.8,4-9.6,2.7-1-.7-.7-.8-3-1.5-2.8-.9-8.2-2.4-10.2-3.2-.9-.3-1.9-.9-2.9-1.4h-19.2c-2.3,2.1-4.7,5.2-7,9.7,0,.3-.3.5-.4.8h163.7l-18.3-20.6Z"/>
        <path class="cls-3" d="M169,42.8c6.8-7.7,12.4-13.9,15.5-17.4,2.7,3.1,7.4,8.3,13.1,14.7l5.8-2.9,4.8-1.1-23.6-26.5-35.7,40.2,12.9-6.1c-.1,0,3.2-1.1,7.2-.9"/>
        <path class="cls-3" d="M123.9,93.6c9.4-10.6,20.6-23.2,31-34.9-3.2.3-6.9.4-11.2.1-1-.1-2-.1-2.9,0l-50.8,57.2h20.4c1.5-2.3,1.4-4.8,3.2-8.9,0,0,0-.6.5-1.6h-.7c.4-.4.8-.9,1.1-1.3,1.3-3.4,4.3-9,9.4-10.6"/>
        <path class="cls-4" d="M110.6,118.4s-7.6,15.2-18.4,15c0-.1,9.3-3.3,18.4-15"/>
        <path class="cls-4" d="M108.4,119s-10.4,11.3-19.7,8.4c0,0,8.8-.5,19.7-8.4"/>
        <path class="cls-4" d="M99.8,137.7s.9-4.8-5.2-4.6c0,0,4.6,1.3,5.2,4.6"/>
        <path class="cls-4" d="M94.4,132.9s2.1-3.9-3.3-5.4c0,.1,3.6,2.4,3.3,5.4"/>
        <path class="cls-1" d="M269.3,89.9s2.1-3,7.3-1.9c0,0-4.5-3.7-7.3,1.9"/>
        <path class="cls-1" d="M272.3,83.6s-3.3.3-5.3,3.7c0,0-.6-5.1,5.3-3.7"/>
        <path class="cls-1" d="M266.4,84.7s-3-.8-4.3,3.7c-.1,0-.7-6.3,4.3-3.7"/>
        <path class="cls-1" d="M121.8,63.3s-8.4,6.5-24.5,6.9c0,0,14,3.9,24.5-6.9"/>
        <path class="cls-1" d="M123.5,65.5s-5.3,7.2-18.4,11.1c0,0,12.3,0,18.4-11.1"/>
        <path class="cls-1" d="M100.9,70.7s10.2,1.9,6.9,5.4c-.1,0,6.3-4.7-6.9-5.4"/>
        <path class="cls-3" d="M87.2,84.9c-1.2.6-1.9,1.8-1.4,2.8.4,1,1.8,1.3,3,.7,1.2-.6,1.9-1.8,1.4-2.8-.4-.9-1.8-1.3-3-.7M88.7,87.5c-.9.4-1.8.2-2.1-.5-.3-.7,0-1.5,1-1.9s1.8-.2,2.1.5c.3.7-.2,1.5-1,1.9"/>
        <path class="cls-3" d="M67.9,88.2c-3.1,3.3-3.5,8.3-.8,11.2,2.7,2.9,7.4,2.6,10.6-.7,1.6-1.7,2.5-3.8,2.6-5.9.2-10.2,5.2-13,5.2-13-12.5,2.5-17.6,8.4-17.6,8.4M78.4,90.9c-.2,1.5-1,3.2-2.3,4.5-2.6,2.5-6.1,2.9-7.9.9s-1.2-5.8,1.4-8.3c0,0,4.2-4.6,13.7-6.9,0,0-4.1,2.3-4.9,9.8"/>
        <path class="cls-4" d="M92.5,137.6c-.5-.5-1.2-.8-2-.8-1.5,0-2.7,1.2-2.7,2.7s1.2,2.6,2.8,2.6c0,0,2.6.2,6.2-2.5,0-.1-1.9.6-4.3-2M90.9,140.7c-1.1-.2-1.8-1-1.7-1.7.2-.8,1.1-1.3,2.2-1.1.6.1,1,.3,1.3.7,1.4,1.7,2.8,1.5,2.8,1.5-2.8,1-4.6.6-4.6.6"/>
        <path class="cls-3" d="M94.7,77.8c-.8-.3-1.6-.4-2.5-.1-1.6.6-2.5,2.4-1.9,4s2.4,2.4,4.1,1.7c0,0,2.9-.9,5.8-5.3,0,.1-1.9,1.5-5.5-.3M94.2,81.8c-1.2.3-2.3-.3-2.5-1.3s.6-2,1.8-2.2c.6-.1,1.2,0,1.7.2,2.2,1.3,3.6.6,3.6.6-2.5,2.4-4.6,2.7-4.6,2.7"/>
        <path class="cls-1" d="M260.6,37.8s11.7-11.4-11.9-12.7c0,0,17,2.5,11.9,12.7"/>
        <path class="cls-1" d="M248.8,25.1s.1-6.3-5.9-6-5.9,5.8-5.9,5.8c0,0,2.7-3.8,5.9-3.8,3.1-.1,5.9,4,5.9,4"/>
        <path class="cls-1" d="M225.6,29.7c-5,3.9-14.8,5.5-19.8,5s-17.9,8.5-22.8,15.3c-4.9,6.8-3.2,9.8-3.2,9.8,5.6-17.2,28.8-22,39.8-24.4,11-2.5,16.5-10.5,16.5-10.5,0,0-5.5.8-10.5,4.8"/>
        <path class="cls-1" d="M188.6,43.8s-7.4-8.7-19,2.1c0,0,10.9-5.2,19-2.1"/>
        <path class="cls-1" d="M133.8,54.1c3.2-2,3.5,2.2,11.2-3.2,18.1-12.7,28-7.6,28-7.6-13.5.2-19.5,5.1-28.2,10.4-8.7,5.2-5-1.4-12.7,3.9,0,0-17,8.9-31.9,6.4-.1,0,15.8,1.2,33.6-9.9"/>
        <path class="cls-1" d="M138,102.3c-4.9-3.9-14.2-5.6-22.5,10.4s-10.5,24.5-18.2,25.6c0,0,1.1,1.2,3.5.1,6.5-2.4,15.3-17,18.9-24.2,4.3-8.6,10.7-11.8,19.3-7.1,8.6,4.7,16,2.9,16,2.9,0,0-12.1-3.8-17-7.7"/>
        <path class="cls-1" d="M194.8,72.4c-12.2-6.8-9.3,1.1-10.4,5.7-1,4.6-9.2,18.9-13.7,22.6-4.5,3.8-1.8,11.1-12.7,10.9,0,0,.7.5,1.8.9,10.3,4.1,12-8.6,14.1-11.1,2.3-2.6,11-7.1,14.4-18.5,3.3-11.4,7.4-3.1,21.5-3.2,7.9-.1,12.6-4.3,12.6-4.3,0,0-15.4,3.8-27.6-3"/>
        <path class="cls-1" d="M262.6,93.5c-9,4.6-10,2.7-13.8-.5s-7.3-.2-11.4-8.9c-4.1-8.7-11.1-8.2-11.1-8.2,4.1,1.8,5.3,3.1,8,11s8.6,5.9,14.4,10.5c5.7,4.6,10.7,3.1,16.7-1.1s13.7-2.9,13.7-2.9c0,0-7.5-4.4-16.5.1"/>
        <path class="cls-1" d="M110.6,118.4s-7.6,15.2-18.4,15c0-.1,9.3-3.3,18.4-15"/>
        <path class="cls-1" d="M108.4,119s-10.4,11.3-19.7,8.4c0,0,8.8-.5,19.7-8.4"/>
        <path class="cls-1" d="M99.8,137.7s.9-4.8-5.2-4.6c0,0,4.6,1.3,5.2,4.6"/>
        <path class="cls-1" d="M94.4,132.9s2.1-3.9-3.3-5.4c0,.1,3.6,2.4,3.3,5.4"/>
        <path class="cls-1" d="M269.3,89.9s2.1-3,7.3-1.9c0,0-4.5-3.7-7.3,1.9"/>
        <path class="cls-1" d="M272.3,83.6s-3.3.3-5.3,3.7c0,0-.6-5.1,5.3-3.7"/>
        <path class="cls-1" d="M266.4,84.7s-3-.8-4.3,3.7c-.1,0-.7-6.3,4.3-3.7"/>
        <path class="cls-1" d="M257.2,41.8l-.6.7c-5.3,5.7-17.8,17.2-27.7,13.5,3.8,5,11,2.3,14,.9-3.8,7.5.7,18.2.7,18.2-2-14.3,3.6-20.7,3.6-20.7,8.1-5.8,12-14.8,12-14.8l-2,2.2Z"/>
        <path class="cls-1" d="M121.8,63.3s-8.4,6.5-24.5,6.9c0,0,14,3.9,24.5-6.9"/>
        <path class="cls-1" d="M123.5,65.5s-5.3,7.2-18.4,11.1c0,0,12.3,0,18.4-11.1"/>
        <path class="cls-1" d="M103.1,64.4s1.9,3.4-4.2,5.7c0,0,9.9-2.5,4.2-5.7"/>
        <path class="cls-1" d="M100.9,70.7s10.2,1.9,6.9,5.4c-.1,0,6.3-4.7-6.9-5.4"/>
        <path class="cls-1" d="M169.7,53.6s-6.7,5.2-26,5.2h.1c-2-.1-3.2-.3-3.2-.3,17.4,5.2,26-.5,26-.5,0,5.3,6,6.5,7.6,6.7-2.9,1.5-19,10.9-16.7,32.4,0,0-6.5-16.4-25.1-3.4,0,0-15-10.5-20.9,19.8,0,0,6.7-25.3,20.8-18.7,0,0,14.8-9.1,25.9,3.8,0,0,1.1-25,19-34.1,0,0-8.3-2.7-7.5-10.9"/>
        <path class="cls-1" d="M244.2,30.4c2.3,0,4.3,1.3,5.2,3.1-.7-2.6-3.3-4.6-6.5-4.6s-6.7,2.7-6.7,6,.1,1.3.3,1.9c-6.6.2-11.9,4.7-11.9,10.1s.4,2.9,1.1,4.2c-.2-.7-.3-1.5-.3-2.3,0-5.5,5.3-10,11.9-10h.5c1.2,1.2,3,2,5,2s3-.5,4.1-1.3c-.8.4-1.8.7-2.8.7-3.1,0-5.6-2.2-5.6-5,.1-2.5,2.6-4.8,5.7-4.8"/>
        <path class="cls-1" d="M301.8,174.3c5.1,6.4,12.7,11,23.7,11s16.4-2.7,16.4-8.9c0-14.8-43.5-2.2-43.5-23.8s12.2-15.9,23.2-15.9c17.6,0,24,7.5,26.7,11.3l-5.5,5c-4.3-5.5-11-9.4-21.3-9.4s-15,3-15,8.5c0,13.5,43.5,1.3,43.5,23.7s-11.8,16.4-25.2,16.4-21.2-3.3-29-12.4l6-5.5Z"/>
        <path class="cls-1" d="M405.6,155c-2.3-3.7-7.2-11.4-20.3-11.4s-21.9,6.2-21.9,21.5,9.8,20.2,22.6,20.2,15.8-2.5,21.3-12l7,3.9c-4.6,8-12.2,15-28.5,15s-30.5-12.2-30.5-27.9,13.8-27.6,30-27.6,23.3,7.5,27.3,14.3l-7,4Z"/>
        <path class="cls-1" d="M473.6,182.5c0,3.1.4,5.3.9,8.1h-8.1c-.4-1.6-1-4.2-1-6.3-7.6,4.9-16.1,7.9-26.1,7.9s-21.3-2.4-21.3-15.9,27.1-18.8,47.5-21.2v-2c0-7.1-8.5-9.8-16.8-9.8-13.9,0-18.8,5.8-21.4,8.8l-6.1-4.2c3-3.7,8.7-11.2,26.9-11.2s25.5,3.5,25.5,16.9v28.9ZM465.5,161.7c-23.8,2.3-39.8,4.5-39.8,14.6s9.2,9.3,13.2,9.3c11.3,0,21.4-5.4,26.6-8.2v-15.7h0Z"/>
        <path class="cls-1" d="M481,138.3h8.1v7.9c7.5-6.1,12.8-9.5,24.8-9.5,20.2,0,28.6,15.4,28.6,27.3s-7.6,28.2-30,28.2-16.2-3.5-23.4-8.8v25.6h-8.1v-70.7ZM489.1,175c4.8,5,11.6,10.3,22.9,10.3s22.4-5.6,22.4-21.5-8.4-20.2-22.6-20.2-17.7,5.7-22.7,11.1v20.3Z"/>
        <path class="cls-1" d="M604.8,179.7c-5.4,5.7-10.6,12.5-28.4,12.5s-29.6-12-29.6-28,12.5-27.5,28.6-27.5,31.3,8.7,30.9,29.4h-51.4c.8,9.8,8.7,19.2,22.3,19.2s18-6.1,21.3-10.2l6.3,4.6ZM597.5,159.2c-1.6-8.6-9-15.6-21.4-15.6s-18.6,6-20.9,15.6h42.3Z"/>
        <path class="cls-3" d="M152.9,185c-5.3,3.8-10.3,7.4-21.1,7.4s-28.3-10.8-28.3-29,11.1-28.3,28.8-28.3,18,6,20.8,8.7v-6.9h12.2v72.1h-12.4v-24ZM152.9,153.1c-3.8-3.1-8.9-7.4-17.9-7.4s-18.9,6-18.9,18.1,8.9,18,18.5,18,13.5-4.1,18.3-7.8v-20.9h0Z"/>
        <path class="cls-3" d="M226.5,190.6h-12.2v-6.7c-3.7,3.8-9.2,8.5-20.1,8.5s-21-4.7-21-21.1v-34.4h12.4v29.8c0,10.6,3.2,15.1,11.5,15.1s13.9-4.1,17-7.9v-37h12.4v53.7h0Z"/>
        <path class="cls-3" d="M289,181.9c0,3.6.2,7.2,1,8.7h-12.7c-.4-1.8-.7-3.6-.7-5.4-5.2,3-12.9,7.2-23.5,7.2s-20.8-3-20.8-16.2,27-20.7,44.3-21.7v-2.4c0-4.1-3.7-7-13.9-7s-13.8,4.2-14.5,7.1h-12.9c3-14.6,17.3-17.1,27.3-17.1,25.9,0,26.4,12.6,26.4,20v26.8h0ZM276.6,163.5c-7.2.3-13.5,1.3-19.3,2.7-7.7,1.8-11.3,4.4-11.4,9.1-.1,4.6,2.9,7.5,9,7.5,9.4,0,16.9-4.1,21.7-7v-12.3h0Z"/>
        <path class="cls-3" d="M307.9,210.3c-46.7,4.2-124.5,45.6-182.7,9.1-.4-.2-.6-.3-.6-.3.2.1.4.2.6.3,4.3,2.5,33.1,16.9,97.7-2.3,46.2-13.7,83.1-20.3,114.1-12.3-13.1-4.7-28.6-7.9-46.2-7.9-63.6,0-153.5,52.6-183.3-6.4l-35.2-72.5h-16.2l-35.8,72.6h15.1l7.7-16.7h41.9l7.6,16.7s19.6,58.8,107,51.1c83.9-7.3,106.2-54.3,190.3-2.8,0,0-35.2-32.8-82-28.6M49,161.7l15.2-32.4,15.2,32.4h-30.4Z"/>
        <path class="cls-3" d="M370,201.3c.1,1.5,1.6,2.9,3.5,3,1.8.1,3.2-1,3.1-2.6-.1-1.5-1.6-2.9-3.4-3-1.9,0-3.3,1.1-3.2,2.6M370.6,201c-.1-1.1.9-1.9,2.2-1.8,1.3.1,2.4,1,2.4,2.1.1,1.1-.9,1.9-2.2,1.8-1.2-.1-2.3-1-2.4-2.1"/>
        <path class="cls-3" d="M362.6,199.9s-7.7-1.6-19,4.1c0,0,5.7-.9,12.1,7.1,1.3,1.6,3.3,2.7,5.7,3.1,4.5.6,8.4-2,8.7-6,.3-4-3-7.7-7.5-8.3M368.2,206.1c-.2,2.6-3.4,4.4-7.1,4-1.9-.2-3.6-1-4.8-2-5.5-5.2-10.2-4.6-10.2-4.6,9.3-3.8,15.7-2.8,15.7-2.8,3.7.4,6.5,2.8,6.4,5.4"/>
        <path class="cls-3" d="M381.3,211.4s-2-3.1-8.1-5c0,0,2.3,1.6,1.3,6.5-.2,1,.1,2.1.7,2.9,1.3,1.7,3.6,2.1,5.3.9,1.7-1.2,2-3.6.8-5.3M379.6,214.8c-1.1.7-2.6.2-3.5-1-.4-.7-.6-1.4-.5-2,.5-3.2-1-4.5-1-4.5,4,1.8,5.4,4,5.4,4,.8,1.2.6,2.8-.4,3.5"/>
        <path class="cls-5" d="M613,132.7c4,0,7.3,3.3,7.3,7.3s-3.3,7.3-7.3,7.3-7.3-3.3-7.3-7.3,3.3-7.3,7.3-7.3M613,145.7c3,0,5.6-2.6,5.6-5.7s-2.6-5.7-5.6-5.7-5.6,2.5-5.6,5.7,2.6,5.7,5.6,5.7M612.7,140.7h-1v3.4h-1.5v-7.9h3c1.9,0,3,.7,3,2.3s-.9,2-2,2.1l2.1,3.5h-1.7l-1.9-3.4ZM613.1,139.5c.9,0,1.7-.1,1.7-1.2s-.9-1.1-1.7-1.1h-1.4v2.3h1.4Z"/>
        <path class="cls-2" d="M613,132.7c4,0,7.3,3.3,7.3,7.3s-3.3,7.3-7.3,7.3-7.3-3.3-7.3-7.3,3.3-7.3,7.3-7.3ZM613,145.7c3,0,5.6-2.6,5.6-5.7s-2.6-5.7-5.6-5.7-5.6,2.5-5.6,5.7,2.6,5.7,5.6,5.7ZM612.7,140.7h-1v3.4h-1.5v-7.9h3c1.9,0,3,.7,3,2.3s-.9,2-2,2.1l2.1,3.5h-1.7l-1.9-3.4ZM613.1,139.5c.9,0,1.7-.1,1.7-1.2s-.9-1.1-1.7-1.1h-1.4v2.3h1.4Z"/>
        <path class="cls-4" d="M613,132.7c4,0,7.3,3.3,7.3,7.3s-3.3,7.3-7.3,7.3-7.3-3.3-7.3-7.3,3.3-7.3,7.3-7.3M613,145.7c3,0,5.6-2.6,5.6-5.7s-2.6-5.7-5.6-5.7-5.6,2.5-5.6,5.7,2.6,5.7,5.6,5.7M612.7,140.7h-1v3.4h-1.5v-7.9h3c1.9,0,3,.7,3,2.3s-.9,2-2,2.1l2.1,3.5h-1.7l-1.9-3.4ZM613.1,139.5c.9,0,1.7-.1,1.7-1.2s-.9-1.1-1.7-1.1h-1.4v2.3h1.4Z"/>
      </g>
    </g>
  </g>
</svg>